HIERARCHY
ROOT hip
{
  OFFSET 0 0 0
  CHANNELS 6 Xposition Yposition Zposition Zrotation Yrotation Xrotation
  JOINT abdomen
  {
    OFFSET 0 20.6881 -0.73152
    CHANNELS 3 Zrotation Xrotation Yrotation
    JOINT chest
    {
      OFFSET 0 11.7043 -0.48768
      CHANNELS 3 Zrotation Xrotation Yrotation
      JOINT neck
      {
        OFFSET 0 22.1894 -2.19456
        CHANNELS 3 Zrotation Xrotation Yrotation
        JOINT head
        {
          OFFSET -0.24384 7.07133 1.2192
          CHANNELS 3 Zrotation Xrotation Yrotation
          JOINT leftEye
          {
            OFFSET 4.14528 8.04674 8.04672
            CHANNELS 3 Zrotation Xrotation Yrotation
            End Site
            {
              OFFSET 1 0 0
            }
          }
          JOINT rightEye
          {
            OFFSET -3.6576 8.04674 8.04672
            CHANNELS 3 Zrotation Xrotation Yrotation
            End Site
            {
              OFFSET 1 0 0
            }
          }
        }
      }
      JOINT rCollar
      {
        OFFSET -2.68224 19.2634 -4.8768
        CHANNELS 3 Zrotation Xrotation Yrotation
        JOINT rShldr
        {
          OFFSET -8.77824 -1.95073 1.46304
          CHANNELS 3 Zrotation Xrotation Yrotation
          JOINT rForeArm
          {
            OFFSET -28.1742 -1.7115 0.48768
            CHANNELS 3 Zrotation Xrotation Yrotation
            JOINT rHand
            {
              OFFSET -22.5879 0.773209 7.07136
              CHANNELS 3 Zrotation Xrotation Yrotation
              JOINT rThumb1
              {
                OFFSET -1.2192 -0.487915 3.41376
                CHANNELS 3 Zrotation Xrotation Yrotation
                JOINT rThumb2
                {
                  OFFSET -3.37035 -0.52449 3.41376
                  CHANNELS 3 Zrotation Xrotation Yrotation
                  End Site
                  {
                    OFFSET -1.78271 -1.18214 1.43049
                  }
                }
              }
              JOINT rIndex1
              {
                OFFSET -7.75947 0.938293 5.60832
                CHANNELS 3 Zrotation Xrotation Yrotation
                JOINT rIndex2
                {
                  OFFSET -2.54057 -0.884171 1.56538
                  CHANNELS 3 Zrotation Xrotation Yrotation
                  End Site
                  {
                    OFFSET -1.62519 -0.234802 1.16502
                  }
                }
              }
              JOINT rMid1
              {
                OFFSET -8.24714 1.18213 3.41376
                CHANNELS 3 Zrotation Xrotation Yrotation
                JOINT rMid2
                {
                  OFFSET -3.10165 -0.590103 1.0647
                  CHANNELS 3 Zrotation Xrotation Yrotation
                  End Site
                  {
                    OFFSET -2.48547 -0.328903 0.83742
                  }
                }
              }
              JOINT rRing1
              {
                OFFSET -8.82822 0.546677 1.51678
                CHANNELS 3 Zrotation Xrotation Yrotation
                JOINT rRing2
                {
                  OFFSET -2.60934 -0.819778 -0.0198488
                  CHANNELS 3 Zrotation Xrotation Yrotation
                  End Site
                  {
                    OFFSET -2.33842 -0.294052 0.168128
                  }
                }
              }
              JOINT rPinky1
              {
                OFFSET -8.27202 -0.0477905 -0.4584
                CHANNELS 3 Zrotation Xrotation Yrotation
                JOINT rPinky2
                {
                  OFFSET -1.82734 -0.647385 -0.700984
                  CHANNELS 3 Zrotation Xrotation Yrotation
                  End Site
                  {
                    OFFSET -1.69225 -0.51767 -0.607171
                  }
                }
              }
            }
          }
        }
      }
      JOINT lCollar
      {
        OFFSET 2.68224 19.2634 -4.8768
        CHANNELS 3 Zrotation Xrotation Yrotation
        JOINT lShldr
        {
          OFFSET 8.77824 -1.95073 1.46304
          CHANNELS 3 Zrotation Xrotation Yrotation
          JOINT lForeArm
          {
            OFFSET 28.1742 -1.7115 0.48768
            CHANNELS 3 Zrotation Xrotation Yrotation
            JOINT lHand
            {
              OFFSET 22.5879 0.773209 7.07136
              CHANNELS 3 Zrotation Xrotation Yrotation
              JOINT lThumb1
              {
                OFFSET 1.2192 -0.487915 3.41376
                CHANNELS 3 Zrotation Xrotation Yrotation
                JOINT lThumb2
                {
                  OFFSET 3.37035 -0.52449 3.41376
                  CHANNELS 3 Zrotation Xrotation Yrotation
                  End Site
                  {
                    OFFSET 1.78271 -1.18214 1.43049
                  }
                }
              }
              JOINT lIndex1
              {
                OFFSET 7.75947 0.938293 5.60832
                CHANNELS 3 Zrotation Xrotation Yrotation
                JOINT lIndex2
                {
                  OFFSET 2.54057 -0.884171 1.56538
                  CHANNELS 3 Zrotation Xrotation Yrotation
                  End Site
                  {
                    OFFSET 1.62519 -0.234802 1.16502
                  }
                }
              }
              JOINT lMid1
              {
                OFFSET 8.24714 1.18213 3.41376
                CHANNELS 3 Zrotation Xrotation Yrotation
                JOINT lMid2
                {
                  OFFSET 3.10165 -0.590103 1.0647
                  CHANNELS 3 Zrotation Xrotation Yrotation
                  End Site
                  {
                    OFFSET 2.48547 -0.328903 0.83742
                  }
                }
              }
              JOINT lRing1
              {
                OFFSET 8.82822 0.546677 1.51678
                CHANNELS 3 Zrotation Xrotation Yrotation
                JOINT lRing2
                {
                  OFFSET 2.60934 -0.819778 -0.0198488
                  CHANNELS 3 Zrotation Xrotation Yrotation
                  End Site
                  {
                    OFFSET 2.33842 -0.294052 0.168128
                  }
                }
              }
              JOINT lPinky1
              {
                OFFSET 8.27202 -0.0477905 -0.4584
                CHANNELS 3 Zrotation Xrotation Yrotation
                JOINT lPinky2
                {
                  OFFSET 1.82734 -0.647385 -0.700984
                  CHANNELS 3 Zrotation Xrotation Yrotation
                  End Site
                  {
                    OFFSET 1.69225 -0.51767 -0.607171
                  }
                }
              }
            }
          }
        }
      }
    }
  }
  JOINT rButtock
  {
    OFFSET -8.77824 4.35084 1.2192
    CHANNELS 3 Zrotation Xrotation Yrotation
    JOINT rThigh
    {
      OFFSET 0 -1.70687 -2.19456
      CHANNELS 3 Zrotation Xrotation Yrotation
      JOINT rShin
      {
        OFFSET 0 -36.8199 0.73152
        CHANNELS 3 Zrotation Xrotation Yrotation
        JOINT rFoot
        {
          OFFSET 0.73152 -45.1104 -5.12064
          CHANNELS 3 Zrotation Xrotation Yrotation
          End Site
          {
            OFFSET -1.1221 -3.69964 12.103
          }
        }
      }
    }
  }
  JOINT lButtock
  {
    OFFSET 8.77824 4.35084 1.2192
    CHANNELS 3 Zrotation Xrotation Yrotation
    JOINT lThigh
    {
      OFFSET 0 -1.70687 -2.19456
      CHANNELS 3 Zrotation Xrotation Yrotation
      JOINT lShin
      {
        OFFSET 0 -36.8199 0.73152
        CHANNELS 3 Zrotation Xrotation Yrotation
        JOINT lFoot
        {
          OFFSET -0.73152 -45.1104 -5.12064
          CHANNELS 3 Zrotation Xrotation Yrotation
          End Site
          {
            OFFSET 1.1221 -3.69964 12.103
          }
        }
      }
    }
  }
}
MOTION
Frames:	9
Frame Time:	0.00833333
38.8126 84.3737 -168.805 0.0 0.0 0.0 -1.03706 -0.00414415 -0.0286003 -0.285917 -0.00382741 -0.0495321 2.55882e-14 7.95139e-16 -1.73937e-16 7.65787e-14 9.54166e-15 -5.14045e-16 -0.0 0.0 0.0 -0.0 0.0 0.0 1.26719e-14 4.81432e-17 4.96962e-17 2.68388e-13 1.27968e-15 -3.97569e-16 4.59078e-12 -1.33623e-12 -4.13472e-14 5.25692e-11 1.56858e-12 -3.14875e-13 1.23997e-10 4.99932e-13 -7.66514e-13 2.14123e-10 8.6193e-13 -1.3255e-12 1.23999e-10 5.00937e-13 -7.76055e-13 7.73091 5.47488 0.417314 1.23997e-10 4.99446e-13 -7.60153e-13 2.90554 0.965183 0.102902 1.24006e-10 4.99844e-13 -7.68104e-13 10.2786 0.731801 0.0259123 1.23993e-10 5.02528e-13 -7.60153e-13 2.22167 -0.733487 -0.20892 1.24752e-14 4.71725e-17 -2.48481e-16 2.65701e-13 9.69075e-16 -1.78906e-15 4.59431e-12 1.40998e-12 -9.54166e-14 5.25777e-11 -1.18446e-12 -2.41722e-13 1.24025e-10 4.87902e-13 -7.63333e-13 2.14198e-10 8.42847e-13 -1.3255e-12 1.24021e-10 4.89805e-13 -7.4743e-13 -7.73091 5.47488 -0.417314 1.24027e-10 4.87619e-13 -7.63333e-13 -2.90554 0.965183 -0.102902 1.24018e-10 4.87619e-13 -7.62538e-13 -10.2786 0.731801 -0.0259123 1.24032e-10 4.90203e-13 -7.72875e-13 -2.22167 -0.733487 0.20892 -2.03217e-16 0.0 -3.88251e-19 -0.272593 -1.9197 -0.0125446 -0.00938685 -2.07854 -0.0775967 -0.513525 3.99653 0.140498 2.03217e-16 0.0 3.88251e-19 -1.30469 -5.55698 0.114015 -0.000206222 4.5099 -0.0271354 0.527109 1.04551 -0.0815202
41.477 82.8835 -171.103 3.3835 31.2178 4.9901 -0.954719 -0.18702 1.27386 0.569246 -0.777919 0.335966 3.947 1.61952 4.27925 -3.45009 1.13325 7.97941 -0.0 0.0 0.0 -0.0 0.0 0.0 2.54309e-15 2.42564e-14 -5.00412e-13 22.0138 -3.07151 -2.577 -3.3441 -1.37904 5.36573 0.00317788 1.28098 0.179878 8.4378e-10 -2.44247e-09 -9.73153e-10 1.45511e-09 -4.2231e-09 -1.69013e-09 8.43782e-10 -2.44247e-09 -9.73166e-10 7.73091 5.47488 0.417314 8.4378e-10 -2.44247e-09 -9.73149e-10 2.90554 0.965183 0.102902 8.43788e-10 -2.44247e-09 -9.73155e-10 10.2786 0.731801 0.0259123 8.43777e-10 -2.44247e-09 -9.73149e-10 2.22167 -0.733487 -0.20892 2.384e-15 2.42544e-14 -5.00697e-13 -23.2566 11.8119 0.380774 3.94296 -1.73982 -6.21347 -0.0180261 -2.98476 0.417441 4.87249e-10 3.49087e-10 -3.73875e-10 8.44414e-10 6.04665e-10 -6.41768e-10 4.87245e-10 3.4909e-10 -3.73861e-10 -7.73091 5.47488 -0.417314 4.87251e-10 3.49087e-10 -3.73874e-10 -2.90554 0.965183 -0.102902 4.87242e-10 3.49087e-10 -3.73872e-10 -10.2786 0.731801 -0.0259123 4.87255e-10 3.49089e-10 -3.73881e-10 -2.22167 -0.733487 0.20892 -2.03217e-16 0.0 -3.88251e-19 -0.144085 -4.36539 1.69026 0.0474555 7.01603 0.130403 -0.920567 -8.06579 -2.14043 2.03217e-16 0.0 3.88251e-19 -3.06482 -10.4829 -7.38163 -0.0103424 12.8943 -0.173036 0.819321 -7.10799 1.87958
41.4706 82.884 -171.097 3.3529 31.1697 4.9659 -0.856703 -0.377274 2.65091 1.48613 -1.60509 0.743986 7.85126 3.30107 8.81412 -7.4213 2.26445 16.4255 -0.0 0.0 0.0 -0.0 0.0 0.0 -7.65988e-15 5.05635e-14 -1.05464e-12 44.9864 -6.28921 -5.32734 -6.596 -2.79423 11.042 -0.00236862 2.66714 0.374842 1.63542e-09 -5.14803e-09 -2.05633e-09 2.81995e-09 -8.9011e-09 -3.57127e-09 1.63542e-09 -5.14803e-09 -2.05634e-09 7.73091 5.47488 0.417314 1.63542e-09 -5.14803e-09 -2.05632e-09 2.90554 0.965183 0.102902 1.63543e-09 -5.14803e-09 -2.05633e-09 10.2786 0.731801 0.0259123 1.63542e-09 -5.14802e-09 -2.05632e-09 2.22167 -0.733487 -0.20892 -7.77749e-15 5.05605e-14 -1.05491e-12 -48.0316 24.2949 0.844851 7.70312 -3.51056 -12.7996 0.0104313 -6.11789 0.859489 8.87557e-10 7.35239e-10 -7.87222e-10 1.53903e-09 1.27357e-09 -1.35132e-09 8.87553e-10 7.35243e-10 -7.87209e-10 -7.73091 5.47488 -0.417314 8.87558e-10 7.35241e-10 -7.87219e-10 -2.90554 0.965183 -0.102902 8.8755e-10 7.35241e-10 -7.87216e-10 -10.2786 0.731801 -0.0259123 8.87562e-10 7.35242e-10 -7.87224e-10 -2.22167 -0.733487 0.20892 -2.03217e-16 0.0 -3.88251e-19 0.147194 -6.94236 3.50223 0.0333283 16.6314 0.363444 -2.45553 -20.7637 -4.8206 2.03217e-16 0.0 3.88251e-19 -6.36068 -15.3082 -15.6202 0.0288508 21.7569 -0.34281 1.75584 -15.6974 4.07627
41.4639 82.8817 -171.098 3.3356 31.1435 4.9821 -0.765118 -0.551644 3.87895 2.31084 -2.32571 1.10778 11.1199 4.75015 12.8776 -11.2678 3.13749 23.9717 -0.0 0.0 0.0 -0.0 0.0 0.0 -1.77145e-14 7.26728e-14 -1.50134e-12 65.2062 -9.13953 -7.81979 -9.26716 -3.99222 16.1327 -0.0146418 3.84278 0.540714 2.28335e-09 -7.32842e-09 -2.91793e-09 3.93709e-09 -1.2671e-08 -5.06773e-09 2.28335e-09 -7.32842e-09 -2.91795e-09 7.73091 5.47488 0.417314 2.28334e-09 -7.32842e-09 -2.91793e-09 2.90554 0.965183 0.102902 2.28335e-09 -7.32842e-09 -2.91793e-09 10.2786 0.731801 0.0259123 2.28335e-09 -7.32842e-09 -2.91793e-09 2.22167 -0.733487 -0.20892 -1.77984e-14 7.26688e-14 -1.50159e-12 -70.3316 35.4287 1.37226 10.7154 -4.97441 -18.7048 0.0777572 -8.95236 1.26605 1.2137e-09 1.04628e-09 -1.1201e-09 2.10485e-09 1.81231e-09 -1.92265e-09 1.21369e-09 1.04629e-09 -1.12009e-09 -7.73091 5.47488 -0.417314 1.2137e-09 1.04629e-09 -1.1201e-09 -2.90554 0.965183 -0.102902 1.21369e-09 1.04629e-09 -1.12009e-09 -10.2786 0.731801 -0.0259123 1.2137e-09 1.04629e-09 -1.1201e-09 -2.22167 -0.733487 0.20892 -2.03217e-16 0.0 -3.88251e-19 0.553516 -9.22574 5.14791 -0.0524491 25.204 0.600545 -5.01751 -31.9655 -7.83137 2.03217e-16 0.0 3.88251e-19 -10.5237 -19.0319 -23.3453 0.115191 29.6622 -0.520066 3.198 -23.3011 6.27174
41.4654 82.8823 -171.098 3.3512 31.1161 4.9896 -0.706593 -0.687342 4.73437 2.88241 -2.78035 1.36019 13.306 5.72122 15.7246 -14.1594 3.61857 29.2352 -0.0 0.0 0.0 -0.0 0.0 0.0 -2.73984e-14 8.42872e-14 -1.67918e-12 79.1324 -11.1425 -9.584 -11.0187 -4.78389 19.7262 -0.0248145 4.49226 0.632656 2.57199e-09 -8.19593e-09 -3.2256e-09 4.43496e-09 -1.41708e-08 -5.60253e-09 2.57199e-09 -8.19592e-09 -3.22562e-09 7.73091 5.47488 0.417314 2.57199e-09 -8.19592e-09 -3.2256e-09 2.90554 0.965183 0.102902 2.572e-09 -8.19592e-09 -3.2256e-09 10.2786 0.731801 0.0259123 2.57199e-09 -8.19592e-09 -3.2256e-09 2.22167 -0.733487 -0.20892 -2.7468e-14 8.42826e-14 -1.67943e-12 -86.0163 43.196 1.84266 12.6353 -5.9042 -22.8463 0.151911 -11.0419 1.57154 1.35442e-09 1.16956e-09 -1.25181e-09 2.34869e-09 2.02563e-09 -2.14845e-09 1.35442e-09 1.16957e-09 -1.2518e-09 -7.73091 5.47488 -0.417314 1.35442e-09 1.16957e-09 -1.2518e-09 -2.90554 0.965183 -0.102902 1.35441e-09 1.16957e-09 -1.2518e-09 -10.2786 0.731801 -0.0259123 1.35442e-09 1.16957e-09 -1.2518e-09 -2.22167 -0.733487 0.20892 -2.03217e-16 0.0 -3.88251e-19 0.936499 -10.8032 6.33208 -0.161766 31.1708 0.793923 -7.72552 -39.6408 -10.5801 2.03217e-16 0.0 3.88251e-19 -14.06 -21.1825 -28.9499 0.21117 35.1755 -0.666706 4.59652 -28.5499 8.01103
41.4311 82.8823 -171.081 3.2814 31.0833 4.9472 -0.701845 -0.772676 5.06662 3.09698 -2.85204 1.45552 14.1936 6.09408 16.845 -15.4622 3.71564 31.2875 -0.0 0.0 0.0 -0.0 0.0 0.0 -3.83267e-14 8.05846e-14 -1.4486e-12 84.5052 -12.0097 -10.2618 -11.7128 -5.10298 21.2078 -0.0243725 4.38479 0.617482 2.31435e-09 -7.0475e-09 -2.66174e-09 3.99141e-09 -1.21847e-08 -4.6244e-09 2.31435e-09 -7.0475e-09 -2.66176e-09 7.73091 5.47488 0.417314 2.31435e-09 -7.0475e-09 -2.66174e-09 2.90554 0.965183 0.102902 2.31436e-09 -7.0475e-09 -2.66174e-09 10.2786 0.731801 0.0259123 2.31435e-09 -7.0475e-09 -2.66174e-09 2.22167 -0.733487 -0.20892 -3.84148e-14 8.05797e-14 -1.44884e-12 -92.1455 46.2588 2.00989 13.3523 -6.24672 -24.4817 0.194617 -12.0978 1.72785 1.19799e-09 1.01104e-09 -1.08514e-09 2.07664e-09 1.7507e-09 -1.86195e-09 1.19799e-09 1.01104e-09 -1.08513e-09 -7.73091 5.47488 -0.417314 1.19799e-09 1.01104e-09 -1.08513e-09 -2.90554 0.965183 -0.102902 1.19798e-09 1.01104e-09 -1.08513e-09 -10.2786 0.731801 -0.0259123 1.19799e-09 1.01104e-09 -1.08513e-09 -2.22167 -0.733487 0.20892 -2.03217e-16 0.0 -3.88251e-19 1.14758 -11.4108 6.8429 -0.217595 33.4901 0.878096 -9.06379 -42.5768 -11.8828 2.03217e-16 0.0 3.88251e-19 -15.5395 -21.9133 -31.1649 0.258348 37.3409 -0.731176 5.23843 -30.5891 8.74334
41.4077 82.8822 -171.07 3.2517 31.0517 4.9327 -0.737627 -0.822134 5.0252 3.05427 -2.65078 1.43855 14.2041 6.0604 16.725 -15.5804 3.58426 31.0427 -0.0 0.0 0.0 -0.0 0.0 0.0 -5.006e-14 6.59708e-14 -9.27793e-13 83.8335 -12.0805 -10.1463 -11.7039 -5.11262 21.1748 -0.0169401 3.73759 0.526 1.66857e-09 -4.4676e-09 -1.47993e-09 2.87894e-09 -7.72339e-09 -2.57356e-09 1.66857e-09 -4.4676e-09 -1.47995e-09 7.73091 5.47488 0.417314 1.66856e-09 -4.4676e-09 -1.47993e-09 2.90554 0.965183 0.102902 1.66858e-09 -4.4676e-09 -1.47993e-09 10.2786 0.731801 0.0259123 1.66857e-09 -4.4676e-09 -1.47993e-09 2.22167 -0.733487 -0.20892 -5.01897e-14 6.5966e-14 -9.28045e-13 -91.3558 45.9632 1.88238 13.2824 -6.21593 -24.3175 0.20372 -12.4155 1.77455 8.31094e-10 6.52125e-10 -7.06136e-10 1.43919e-09 1.12857e-09 -1.21089e-09 8.31094e-10 6.52131e-10 -7.06128e-10 -7.73091 5.47488 -0.417314 8.31094e-10 6.52129e-10 -7.06138e-10 -2.90554 0.965183 -0.102902 8.31089e-10 6.52129e-10 -7.06131e-10 -10.2786 0.731801 -0.0259123 8.31096e-10 6.52127e-10 -7.06136e-10 -2.22167 -0.733487 0.20892 -2.03217e-16 0.0 -3.88251e-19 1.20193 -11.3313 6.86417 -0.210591 33.2044 0.867791 -8.91097 -42.2021 -11.7455 2.03217e-16 0.0 3.88251e-19 -15.2973 -21.8505 -30.8676 0.252564 37.1151 -0.723801 5.15114 -30.3635 8.63698
41.3849 82.882 -171.059 3.2213 31.0204 4.918 -0.790238 -0.852408 4.83654 2.89736 -2.35771 1.37763 13.8684 5.86505 16.1071 -15.2235 3.36779 29.8771 -0.0 0.0 0.0 -0.0 0.0 0.0 -5.92936e-14 4.79916e-14 -3.42192e-13 80.7589 -11.8328 -9.72666 -11.4117 -4.99682 20.5272 -0.00981586 2.90718 0.408888 9.36794e-10 -1.59972e-09 -2.04588e-10 1.61808e-09 -2.76415e-09 -3.60137e-10 9.36799e-10 -1.59972e-09 -2.04606e-10 7.73091 5.47488 0.417314 9.36791e-10 -1.59972e-09 -2.04584e-10 2.90554 0.965183 0.102902 9.36805e-10 -1.59972e-09 -2.04593e-10 10.2786 0.731801 0.0259123 9.36793e-10 -1.59972e-09 -2.04586e-10 2.22167 -0.733487 -0.20892 -5.94651e-14 4.7987e-14 -3.42446e-13 -87.8094 44.32 1.65892 12.898 -6.03584 -23.4334 0.197287 -12.425 1.77499 4.40124e-10 2.43346e-10 -2.68983e-10 7.59798e-10 4.1983e-10 -4.59648e-10 4.40125e-10 2.43353e-10 -2.68976e-10 -7.73091 5.47488 -0.417314 4.40125e-10 2.43351e-10 -2.68988e-10 -2.90554 0.965183 -0.102902 4.4012e-10 2.4335e-10 -2.68981e-10 -10.2786 0.731801 -0.0259123 4.40126e-10 2.43348e-10 -2.68986e-10 -2.22167 -0.733487 0.20892 -2.03217e-16 0.0 -3.88251e-19 1.19066 -10.9781 6.68585 -0.178642 31.8772 0.819899 -8.1654 -40.5079 -11.0359 2.03217e-16 0.0 3.88251e-19 -14.3689 -21.4684 -29.5666 0.225698 35.9319 -0.687725 4.77421 -29.2313 8.19654
41.3586 82.8819 -171.048 3.1882 30.9899 4.9009 -0.835053 -0.880106 4.72709 2.76848 -2.15397 1.34099 13.7145 5.75178 15.7342 -15.0925 3.21391 29.1653 -0.0 0.0 0.0 -0.0 0.0 0.0 -6.27226e-14 3.41925e-14 8.27938e-14 78.9164 -11.7433 -9.49436 -11.2493 -4.93594 20.1661 -0.00621334 2.25008 0.316392 4.21191e-10 4.12667e-10 6.39861e-10 7.29316e-10 7.15685e-10 1.1057e-09 4.21196e-10 4.12669e-10 6.39845e-10 7.73091 5.47488 0.417314 4.21187e-10 4.12665e-10 6.39867e-10 2.90554 0.965183 0.102902 4.21202e-10 4.12665e-10 6.39857e-10 10.2786 0.731801 0.0259123 4.21189e-10 4.12664e-10 6.39864e-10 2.22167 -0.733487 -0.20892 -6.29134e-14 3.41881e-14 8.25453e-14 -85.6536 43.341 1.52878 12.6674 -5.92788 -22.9094 0.197359 -12.5564 1.79378 2.1147e-10 -6.47768e-11 7.21477e-11 3.61901e-10 -1.14913e-10 1.27377e-10 2.1147e-10 -6.47704e-11 7.21541e-11 -7.73091 5.47488 -0.417314 2.1147e-10 -6.47721e-11 7.21413e-11 -2.90554 0.965183 -0.102902 2.11466e-10 -6.47729e-11 7.21477e-11 -10.2786 0.731801 -0.0259123 2.11471e-10 -6.47756e-11 7.21413e-11 -2.22167 -0.733487 0.20892 -2.03217e-16 0.0 -3.88251e-19 1.20825 -10.7635 6.59859 -0.160601 31.0721 0.791963 -7.74879 -39.4812 -10.6396 2.03217e-16 0.0 3.88251e-19 -13.7998 -21.2332 -28.7753 0.21054 35.2251 -0.666773 4.55381 -28.5499 7.93129
